<?xml version="1.0" encoding="UTF-8" standalone="no"?>
<!DOCTYPE svg PUBLIC "-//W3C//DTD SVG 1.1//EN" "http://www.w3.org/Graphics/SVG/1.1/DTD/svg11.dtd">
<svg width="100%" height="100%" viewBox="0 0 633 252" version="1.1" xmlns="http://www.w3.org/2000/svg" xmlns:xlink="http://www.w3.org/1999/xlink" xml:space="preserve" xmlns:serif="http://www.serif.com/" style="fill-rule:evenodd;clip-rule:evenodd;stroke-linejoin:round;stroke-miterlimit:1.41421;">
    <g transform="matrix(1,0,0,1,-83.6865,-798.539)">
        <g transform="matrix(5.55556,0,0,5.55556,245.204,1046.43)">
            <path d="M0,-43.914C-0.556,-44.265 -1.105,-44.444 -1.631,-44.444C-2.026,-44.444 -2.647,-44.337 -3.21,-43.783C-3.215,-43.785 -3.221,-43.788 -3.227,-43.791C-3.484,-43.92 -3.786,-43.923 -4.046,-43.8C-4.306,-43.677 -4.495,-43.442 -4.559,-43.161C-4.673,-42.658 -4.709,-42.18 -4.662,-41.714C-5.004,-41.778 -5.36,-41.812 -5.724,-41.812C-6.241,-41.812 -6.661,-41.392 -6.661,-40.875C-6.661,-40.766 -6.65,-40.659 -6.63,-40.555C-6.722,-40.473 -6.806,-40.392 -6.886,-40.311C-7.168,-40.574 -7.532,-40.75 -7.935,-40.794C-8.003,-40.801 -8.072,-40.805 -8.139,-40.805C-8.623,-40.805 -9.064,-40.617 -9.393,-40.311C-9.473,-40.392 -9.557,-40.473 -9.649,-40.554C-9.629,-40.659 -9.618,-40.766 -9.618,-40.875C-9.618,-41.392 -10.038,-41.812 -10.555,-41.812C-10.875,-41.812 -11.188,-41.786 -11.492,-41.736C-11.441,-42.039 -11.416,-42.352 -11.416,-42.673C-11.416,-43.19 -11.835,-43.609 -12.352,-43.609C-12.462,-43.609 -12.569,-43.599 -12.673,-43.578C-13.041,-43.991 -13.38,-44.262 -13.899,-44.521C-14.163,-44.653 -14.473,-44.653 -14.737,-44.521C-15.256,-44.262 -15.596,-43.991 -15.964,-43.578C-16.068,-43.599 -16.175,-43.609 -16.284,-43.609C-16.802,-43.609 -17.221,-43.19 -17.221,-42.673C-17.221,-42.352 -17.195,-42.039 -17.145,-41.736C-17.448,-41.786 -17.762,-41.812 -18.082,-41.812C-18.599,-41.812 -19.019,-41.392 -19.019,-40.875C-19.019,-40.766 -19.008,-40.659 -18.988,-40.555C-19.079,-40.473 -19.164,-40.392 -19.243,-40.311C-19.525,-40.574 -19.89,-40.75 -20.293,-40.794C-20.361,-40.801 -20.429,-40.805 -20.497,-40.805C-20.981,-40.805 -21.422,-40.617 -21.751,-40.311C-21.83,-40.392 -21.915,-40.473 -22.007,-40.555C-21.986,-40.659 -21.976,-40.766 -21.976,-40.875C-21.976,-41.392 -22.395,-41.812 -22.913,-41.812C-23.277,-41.812 -23.632,-41.778 -23.974,-41.714C-23.928,-42.18 -23.963,-42.658 -24.077,-43.161C-24.141,-43.442 -24.33,-43.677 -24.59,-43.8C-24.85,-43.923 -25.152,-43.92 -25.41,-43.791C-25.415,-43.788 -25.421,-43.785 -25.427,-43.783C-25.99,-44.337 -26.61,-44.444 -27.006,-44.444C-27.531,-44.444 -28.08,-44.265 -28.637,-43.914C-28.941,-43.722 -29.108,-43.372 -29.067,-43.015C-29.026,-42.657 -28.783,-42.355 -28.443,-42.237C-27.943,-42.064 -27.799,-41.852 -27.705,-40.107C-28.157,-39.683 -28.313,-38.953 -28.062,-38.229C-27.918,-37.814 -27.659,-37.474 -27.338,-37.26L-26.735,-35.933C-27.16,-35.584 -27.435,-35.058 -27.448,-34.467C-27.449,-34.456 -27.449,-34.446 -27.449,-34.436L-27.449,-34.412C-27.436,-33.351 -26.567,-32.49 -25.503,-32.49L-3.134,-32.49C-2.069,-32.49 -1.199,-33.352 -1.188,-34.421L-1.188,-34.452C-1.195,-35.048 -1.472,-35.581 -1.901,-35.933L-1.298,-37.26C-0.978,-37.474 -0.719,-37.814 -0.575,-38.229C-0.312,-38.989 -0.496,-39.755 -1,-40.168C-0.928,-41.899 -0.671,-42.072 -0.194,-42.237C0.146,-42.355 0.389,-42.657 0.43,-43.015C0.472,-43.372 0.304,-43.722 0,-43.914M-1.955,-39.514C-1.867,-39.539 -1.779,-39.538 -1.696,-39.504C-1.42,-39.391 -1.314,-38.957 -1.46,-38.535C-1.57,-38.218 -1.79,-37.999 -2.01,-37.957L-3.155,-35.438L-3.134,-35.438C-2.578,-35.438 -2.127,-34.988 -2.125,-34.432L-2.125,-34.436L-2.125,-34.429L-2.125,-34.432C-2.127,-33.877 -2.578,-33.427 -3.134,-33.427L-25.503,-33.427C-26.059,-33.427 -26.51,-33.877 -26.512,-34.432C-26.512,-34.431 -26.512,-34.43 -26.512,-34.429L-26.512,-34.436C-26.512,-34.435 -26.512,-34.434 -26.512,-34.432C-26.51,-34.988 -26.059,-35.438 -25.503,-35.438L-25.481,-35.438L-26.626,-37.957C-26.846,-37.999 -27.067,-38.218 -27.177,-38.535C-27.323,-38.957 -27.217,-39.391 -26.941,-39.504C-26.876,-39.53 -26.808,-39.537 -26.74,-39.527C-26.833,-41.764 -26.914,-42.699 -28.137,-43.122C-27.069,-43.796 -26.114,-43.628 -25.553,-42.279C-25.384,-42.617 -25.328,-42.785 -24.991,-42.953C-24.71,-41.718 -25.047,-40.763 -25.834,-39.752C-24.991,-40.594 -23.867,-40.875 -22.913,-40.875C-22.913,-40.707 -22.969,-40.482 -23.194,-40.314C-22.463,-39.752 -22.182,-39.471 -21.902,-38.909C-22.182,-38.347 -22.463,-38.067 -23.194,-37.505C-22.969,-37.336 -22.913,-37.112 -22.913,-36.943C-23.867,-36.943 -24.991,-37.224 -25.834,-38.067C-25.44,-37.112 -24.148,-36.213 -23.587,-36.213C-23.112,-36.213 -21.833,-36.936 -20.941,-38.178C-21.215,-38.333 -21.4,-38.628 -21.4,-38.965C-21.4,-39.498 -20.94,-39.923 -20.395,-39.863C-19.976,-39.817 -19.638,-39.473 -19.598,-39.054C-19.562,-38.679 -19.756,-38.346 -20.054,-38.178C-19.161,-36.936 -17.883,-36.213 -17.408,-36.213C-16.846,-36.213 -15.442,-36.943 -15.161,-38.067C-16.003,-37.224 -17.127,-36.943 -18.082,-36.943C-18.082,-37.112 -18.026,-37.336 -17.801,-37.505C-18.531,-38.067 -18.812,-38.347 -19.093,-38.909C-18.812,-39.471 -18.531,-39.752 -17.801,-40.314C-18.026,-40.482 -18.082,-40.707 -18.082,-40.875C-17.127,-40.875 -16.003,-40.594 -15.161,-39.752C-16.003,-40.594 -16.284,-41.718 -16.284,-42.673C-16.116,-42.673 -15.891,-42.617 -15.723,-42.392C-15.161,-43.122 -14.88,-43.403 -14.318,-43.684C-13.757,-43.403 -13.476,-43.122 -12.914,-42.392C-12.746,-42.617 -12.521,-42.673 -12.352,-42.673C-12.352,-41.718 -12.633,-40.594 -13.476,-39.752C-12.633,-40.594 -11.51,-40.875 -10.555,-40.875C-10.555,-40.707 -10.611,-40.482 -10.836,-40.314C-10.105,-39.752 -9.825,-39.471 -9.544,-38.909C-9.825,-38.347 -10.105,-38.067 -10.836,-37.505C-10.611,-37.336 -10.555,-37.112 -10.555,-36.943C-11.51,-36.943 -12.633,-37.224 -13.476,-38.067C-13.195,-36.943 -11.791,-36.213 -11.229,-36.213C-10.754,-36.213 -9.476,-36.936 -8.583,-38.178C-8.857,-38.333 -9.043,-38.628 -9.043,-38.965C-9.043,-39.498 -8.582,-39.923 -8.037,-39.863C-7.619,-39.817 -7.28,-39.473 -7.241,-39.054C-7.205,-38.679 -7.398,-38.346 -7.696,-38.178C-6.803,-36.936 -5.525,-36.213 -5.05,-36.213C-4.488,-36.213 -3.196,-37.112 -2.803,-38.067C-3.646,-37.224 -4.769,-36.943 -5.724,-36.943C-5.724,-37.112 -5.668,-37.336 -5.443,-37.505C-6.173,-38.067 -6.454,-38.347 -6.735,-38.909C-6.454,-39.471 -6.173,-39.752 -5.443,-40.314C-5.668,-40.482 -5.724,-40.707 -5.724,-40.875C-4.769,-40.875 -3.646,-40.594 -2.803,-39.752C-3.589,-40.763 -3.927,-41.718 -3.646,-42.953C-3.309,-42.785 -3.252,-42.617 -3.084,-42.279C-2.522,-43.628 -1.567,-43.796 -0.5,-43.122C-1.725,-42.698 -1.922,-41.76 -1.955,-39.514M-14.932,-27.086C-14.932,-27.086 -15.012,-27.359 -15.049,-27.593C-15.082,-27.799 -15.081,-28.101 -15.081,-28.101C-15.081,-28.101 -15.164,-28.201 -15.355,-28.283C-15.552,-28.37 -15.734,-28.352 -15.734,-28.352C-15.734,-28.352 -15.693,-28.212 -15.659,-28.051C-15.626,-27.889 -15.605,-27.699 -15.605,-27.699C-15.605,-27.699 -15.419,-27.623 -15.268,-27.482C-15.113,-27.339 -14.932,-27.086 -14.932,-27.086M-12.903,-28.352C-12.903,-28.352 -13.084,-28.37 -13.282,-28.283C-13.472,-28.201 -13.555,-28.101 -13.555,-28.101C-13.555,-28.101 -13.554,-27.799 -13.587,-27.593C-13.625,-27.359 -13.704,-27.086 -13.704,-27.086C-13.704,-27.086 -13.523,-27.339 -13.369,-27.482C-13.217,-27.623 -13.031,-27.699 -13.031,-27.699C-13.031,-27.699 -13.011,-27.889 -12.977,-28.051C-12.944,-28.212 -12.903,-28.352 -12.903,-28.352M-5.879,-12.771C-5.674,-12.527 -5.511,-12.486 -5.399,-12.486C-5.211,-12.486 -5.032,-12.724 -4.98,-12.791C-4.929,-12.859 -4.807,-13.103 -4.651,-13.126C-4.503,-13.148 -4.432,-12.993 -4.432,-12.993C-4.432,-12.993 -4.405,-13.08 -4.401,-13.123C-4.389,-13.246 -4.457,-13.306 -4.523,-13.332C-4.735,-13.416 -5.018,-13.171 -5.067,-13.132C-5.353,-12.907 -5.598,-13.03 -5.782,-13.16C-6.124,-13.403 -6.128,-13.859 -6.128,-13.859L-6.262,-13.822C-6.262,-13.822 -6.28,-13.606 -6.233,-13.421C-6.153,-13.099 -5.943,-12.847 -5.879,-12.771M-6.9,-15.652C-6.971,-15.933 -7.115,-16.333 -7.213,-16.536C-7.502,-17.133 -7.926,-17.303 -8.11,-17.381C-8.507,-17.549 -8.878,-17.326 -9.032,-17.094C-9.359,-16.603 -9.15,-16.08 -9.029,-15.905C-8.875,-15.683 -8.463,-15.231 -8.368,-15.115C-8.077,-14.761 -8.151,-14.563 -8.219,-14.484C-8.387,-14.284 -8.663,-14.453 -8.663,-14.453C-8.663,-14.453 -8.614,-14.29 -8.438,-14.219C-8.148,-14.1 -7.987,-14.241 -7.885,-14.347C-7.683,-14.555 -7.824,-14.872 -7.903,-14.994C-7.981,-15.115 -8.074,-15.283 -8.125,-15.372C-8.289,-15.654 -8.16,-15.993 -8.003,-16.134C-7.722,-16.387 -7.414,-16.182 -7.259,-15.935C-7.033,-15.574 -6.919,-15.09 -6.919,-15.09C-6.919,-15.09 -6.886,-15.103 -6.853,-15.113C-6.818,-15.123 -6.782,-15.131 -6.782,-15.131C-6.782,-15.131 -6.845,-15.433 -6.9,-15.652M-7.514,-17.343C-7.36,-17.2 -7.179,-16.948 -7.179,-16.948C-7.179,-16.948 -7.258,-17.22 -7.295,-17.454C-7.329,-17.66 -7.328,-17.962 -7.328,-17.962C-7.328,-17.962 -7.411,-18.062 -7.601,-18.145C-7.799,-18.231 -7.98,-18.213 -7.98,-18.213C-7.98,-18.213 -7.939,-18.074 -7.905,-17.912C-7.872,-17.751 -7.851,-17.56 -7.851,-17.56C-7.851,-17.56 -7.666,-17.484 -7.514,-17.343M-8.606,-13.332C-8.673,-13.306 -8.74,-13.246 -8.728,-13.123C-8.724,-13.08 -8.697,-12.993 -8.697,-12.993C-8.697,-12.993 -8.626,-13.148 -8.479,-13.126C-8.321,-13.103 -8.2,-12.859 -8.149,-12.791C-8.097,-12.724 -7.918,-12.486 -7.73,-12.486C-7.619,-12.486 -7.455,-12.527 -7.25,-12.771C-7.186,-12.847 -6.977,-13.099 -6.896,-13.421C-6.85,-13.606 -6.868,-13.822 -6.868,-13.822L-7.001,-13.859C-7.001,-13.859 -7.006,-13.403 -7.347,-13.16C-7.531,-13.03 -7.776,-12.907 -8.062,-13.132C-8.111,-13.171 -8.395,-13.416 -8.606,-13.332M-6.565,-14.942C-6.918,-14.942 -7.206,-14.745 -7.206,-14.503C-7.206,-14.261 -6.918,-14.065 -6.565,-14.065C-6.211,-14.065 -5.924,-14.261 -5.924,-14.503C-5.924,-14.745 -6.211,-14.942 -6.565,-14.942M-6.248,-12.253C-6.139,-12.446 -6.077,-12.705 -6.077,-12.705C-6.077,-12.705 -6.23,-12.862 -6.342,-13.107C-6.504,-13.459 -6.46,-13.808 -6.46,-13.808C-6.46,-13.808 -6.49,-13.806 -6.514,-13.806C-6.537,-13.806 -6.565,-13.805 -6.565,-13.805C-6.565,-13.805 -6.592,-13.806 -6.616,-13.806C-6.64,-13.806 -6.67,-13.808 -6.67,-13.808C-6.67,-13.808 -6.626,-13.459 -6.787,-13.107C-6.9,-12.862 -7.053,-12.705 -7.053,-12.705C-7.053,-12.705 -6.991,-12.446 -6.881,-12.253C-6.75,-12.023 -6.565,-11.81 -6.565,-11.81C-6.565,-11.81 -6.38,-12.023 -6.248,-12.253M-11.854,-7.158C-11.733,-7.333 -11.524,-7.856 -11.851,-8.348C-12.005,-8.579 -12.376,-8.802 -12.773,-8.634C-12.956,-8.556 -13.381,-8.386 -13.67,-7.79C-13.768,-7.586 -13.912,-7.186 -13.982,-6.906C-14.038,-6.686 -14.101,-6.384 -14.101,-6.384C-14.101,-6.384 -14.066,-6.377 -14.03,-6.366C-13.997,-6.357 -13.964,-6.343 -13.964,-6.343C-13.964,-6.343 -13.851,-6.827 -13.624,-7.189C-13.469,-7.435 -13.161,-7.64 -12.88,-7.388C-12.722,-7.246 -12.594,-6.907 -12.758,-6.625C-12.809,-6.537 -12.901,-6.368 -12.98,-6.247C-13.058,-6.126 -13.2,-5.809 -12.998,-5.6C-12.896,-5.495 -12.735,-5.353 -12.445,-5.472C-12.27,-5.544 -12.22,-5.707 -12.22,-5.707C-12.22,-5.707 -12.495,-5.537 -12.664,-5.737C-12.732,-5.816 -12.806,-6.015 -12.516,-6.368C-12.42,-6.484 -12.008,-6.936 -11.854,-7.158M-12.977,-9.166C-12.944,-9.327 -12.903,-9.466 -12.903,-9.466C-12.903,-9.466 -13.084,-9.484 -13.282,-9.398C-13.472,-9.315 -13.555,-9.215 -13.555,-9.215C-13.555,-9.215 -13.554,-8.913 -13.587,-8.707C-13.625,-8.473 -13.704,-8.201 -13.704,-8.201C-13.704,-8.201 -13.523,-8.453 -13.369,-8.596C-13.217,-8.737 -13.031,-8.813 -13.031,-8.813C-13.031,-8.813 -13.011,-9.004 -12.977,-9.166M-14.318,-6.392C-14.318,-6.392 -14.092,-7.44 -14.036,-7.692C-13.806,-8.702 -13.803,-9.196 -13.907,-9.722C-13.984,-10.104 -14.318,-10.543 -14.318,-10.543C-14.318,-10.543 -14.653,-10.104 -14.729,-9.722C-14.834,-9.196 -14.83,-8.702 -14.601,-7.692C-14.544,-7.44 -14.318,-6.392 -14.318,-6.392M-14.318,-6.195C-14.672,-6.195 -14.959,-5.999 -14.959,-5.757C-14.959,-5.514 -14.672,-5.318 -14.318,-5.318C-13.964,-5.318 -13.677,-5.514 -13.677,-5.757C-13.677,-5.999 -13.964,-6.195 -14.318,-6.195M-13.633,-4.024C-13.427,-3.78 -13.264,-3.74 -13.153,-3.74C-12.965,-3.74 -12.786,-3.977 -12.734,-4.045C-12.683,-4.112 -12.562,-4.356 -12.404,-4.379C-12.256,-4.401 -12.186,-4.246 -12.186,-4.246C-12.186,-4.246 -12.159,-4.333 -12.155,-4.376C-12.143,-4.499 -12.21,-4.559 -12.277,-4.586C-12.488,-4.669 -12.771,-4.424 -12.821,-4.385C-13.107,-4.16 -13.352,-4.283 -13.535,-4.413C-13.878,-4.656 -13.882,-5.112 -13.882,-5.112L-14.015,-5.076C-14.015,-5.076 -14.033,-4.859 -13.987,-4.674C-13.906,-4.353 -13.697,-4.1 -13.633,-4.024M-14.806,-3.958C-14.806,-3.958 -14.744,-3.7 -14.635,-3.507C-14.503,-3.276 -14.318,-3.063 -14.318,-3.063C-14.318,-3.063 -14.133,-3.276 -14.002,-3.507C-13.892,-3.7 -13.83,-3.958 -13.83,-3.958C-13.83,-3.958 -13.984,-4.116 -14.096,-4.36C-14.257,-4.712 -14.213,-5.062 -14.213,-5.062C-14.213,-5.062 -14.243,-5.06 -14.267,-5.06C-14.291,-5.06 -14.318,-5.058 -14.318,-5.058C-14.318,-5.058 -14.346,-5.06 -14.37,-5.06C-14.393,-5.06 -14.424,-5.062 -14.424,-5.062C-14.424,-5.062 -14.38,-4.712 -14.541,-4.36C-14.653,-4.116 -14.806,-3.958 -14.806,-3.958M-16.482,-4.376C-16.478,-4.333 -16.451,-4.246 -16.451,-4.246C-16.451,-4.246 -16.38,-4.402 -16.233,-4.379C-16.076,-4.356 -15.954,-4.112 -15.903,-4.045C-15.851,-3.977 -15.672,-3.74 -15.484,-3.74C-15.372,-3.74 -15.209,-3.78 -15.003,-4.024C-14.94,-4.1 -14.731,-4.353 -14.65,-4.674C-14.604,-4.859 -14.621,-5.076 -14.621,-5.076L-14.755,-5.112C-14.755,-5.112 -14.759,-4.656 -15.101,-4.413C-15.285,-4.283 -15.529,-4.16 -15.816,-4.385C-15.865,-4.424 -16.148,-4.669 -16.36,-4.586C-16.426,-4.559 -16.494,-4.499 -16.482,-4.376M-16.785,-8.348C-17.112,-7.856 -16.904,-7.333 -16.782,-7.158C-16.628,-6.936 -16.217,-6.484 -16.121,-6.368C-15.831,-6.015 -15.904,-5.816 -15.972,-5.737C-16.141,-5.537 -16.417,-5.707 -16.417,-5.707C-16.417,-5.707 -16.367,-5.544 -16.192,-5.472C-15.902,-5.353 -15.74,-5.495 -15.638,-5.6C-15.437,-5.809 -15.578,-6.126 -15.657,-6.247C-15.734,-6.368 -15.827,-6.537 -15.878,-6.625C-16.043,-6.907 -15.914,-7.246 -15.757,-7.388C-15.475,-7.64 -15.168,-7.435 -15.013,-7.189C-14.785,-6.827 -14.673,-6.343 -14.673,-6.343C-14.673,-6.343 -14.639,-6.357 -14.607,-6.366C-14.571,-6.377 -14.536,-6.384 -14.536,-6.384C-14.536,-6.384 -14.598,-6.686 -14.654,-6.906C-14.725,-7.186 -14.869,-7.586 -14.967,-7.79C-15.256,-8.386 -15.68,-8.556 -15.863,-8.634C-16.261,-8.802 -16.631,-8.579 -16.785,-8.348M-15.268,-8.596C-15.113,-8.453 -14.932,-8.201 -14.932,-8.201C-14.932,-8.201 -15.012,-8.473 -15.049,-8.707C-15.082,-8.913 -15.081,-9.215 -15.081,-9.215C-15.081,-9.215 -15.164,-9.315 -15.355,-9.398C-15.552,-9.484 -15.734,-9.466 -15.734,-9.466C-15.734,-9.466 -15.693,-9.327 -15.659,-9.166C-15.626,-9.004 -15.605,-8.813 -15.605,-8.813C-15.605,-8.813 -15.419,-8.737 -15.268,-8.596M-22.56,-12.705C-22.56,-12.705 -22.498,-12.446 -22.389,-12.253C-22.257,-12.023 -22.072,-11.81 -22.072,-11.81C-22.072,-11.81 -21.887,-12.023 -21.755,-12.253C-21.646,-12.446 -21.584,-12.705 -21.584,-12.705C-21.584,-12.705 -21.737,-12.862 -21.849,-13.107C-22.011,-13.459 -21.967,-13.808 -21.967,-13.808C-21.967,-13.808 -21.998,-13.806 -22.021,-13.806C-22.045,-13.806 -22.072,-13.805 -22.072,-13.805C-22.072,-13.805 -22.099,-13.806 -22.123,-13.806C-22.147,-13.806 -22.177,-13.808 -22.177,-13.808C-22.177,-13.808 -22.133,-13.459 -22.294,-13.107C-22.407,-12.862 -22.56,-12.705 -22.56,-12.705M-20.527,-17.381C-20.71,-17.303 -21.135,-17.133 -21.423,-16.536C-21.522,-16.333 -21.665,-15.933 -21.736,-15.652C-21.792,-15.433 -21.855,-15.131 -21.855,-15.131C-21.855,-15.131 -21.82,-15.123 -21.783,-15.113C-21.751,-15.103 -21.717,-15.09 -21.717,-15.09C-21.717,-15.09 -21.605,-15.574 -21.377,-15.935C-21.223,-16.182 -20.915,-16.387 -20.634,-16.134C-20.476,-15.993 -20.348,-15.654 -20.511,-15.372C-20.563,-15.284 -20.656,-15.115 -20.734,-14.994C-20.812,-14.872 -20.953,-14.555 -20.752,-14.347C-20.65,-14.241 -20.489,-14.1 -20.199,-14.219C-20.023,-14.29 -19.974,-14.454 -19.974,-14.454C-19.974,-14.454 -20.249,-14.284 -20.418,-14.484C-20.486,-14.563 -20.56,-14.761 -20.269,-15.115C-20.174,-15.231 -19.762,-15.683 -19.608,-15.905C-19.486,-16.08 -19.278,-16.603 -19.605,-17.094C-19.759,-17.326 -20.13,-17.549 -20.527,-17.381M-20.731,-17.912C-20.697,-18.074 -20.656,-18.213 -20.656,-18.213C-20.656,-18.213 -20.837,-18.231 -21.035,-18.145C-21.226,-18.062 -21.309,-17.962 -21.309,-17.962C-21.309,-17.962 -21.308,-17.66 -21.341,-17.454C-21.379,-17.22 -21.458,-16.948 -21.458,-16.948C-21.458,-16.948 -21.277,-17.2 -21.123,-17.343C-20.971,-17.484 -20.785,-17.56 -20.785,-17.56C-20.785,-17.56 -20.765,-17.751 -20.731,-17.912M-21.431,-14.503C-21.431,-14.745 -21.718,-14.942 -22.072,-14.942C-22.426,-14.942 -22.713,-14.745 -22.713,-14.503C-22.713,-14.261 -22.426,-14.065 -22.072,-14.065C-21.718,-14.065 -21.431,-14.261 -21.431,-14.503M-19.909,-13.123C-19.897,-13.246 -19.964,-13.306 -20.03,-13.332C-20.242,-13.416 -20.525,-13.171 -20.574,-13.132C-20.86,-12.907 -21.106,-13.03 -21.289,-13.16C-21.632,-13.403 -21.635,-13.859 -21.635,-13.859L-21.769,-13.822C-21.769,-13.822 -21.787,-13.606 -21.741,-13.421C-21.66,-13.099 -21.45,-12.847 -21.387,-12.771C-21.181,-12.527 -21.018,-12.486 -20.907,-12.486C-20.718,-12.486 -20.539,-12.724 -20.488,-12.791C-20.436,-12.859 -20.315,-13.103 -20.158,-13.126C-20.01,-13.148 -19.94,-12.993 -19.94,-12.993C-19.94,-12.993 -19.913,-13.08 -19.909,-13.123M-24.235,-13.123C-24.231,-13.08 -24.204,-12.993 -24.204,-12.993C-24.204,-12.993 -24.133,-13.148 -23.986,-13.126C-23.829,-13.103 -23.708,-12.859 -23.656,-12.791C-23.605,-12.724 -23.426,-12.486 -23.237,-12.486C-23.126,-12.486 -22.963,-12.527 -22.757,-12.771C-22.694,-12.847 -22.485,-13.099 -22.404,-13.421C-22.357,-13.606 -22.375,-13.822 -22.375,-13.822L-22.509,-13.859C-22.509,-13.859 -22.512,-13.403 -22.855,-13.16C-23.039,-13.03 -23.283,-12.907 -23.57,-13.132C-23.619,-13.171 -23.902,-13.416 -24.113,-13.332C-24.18,-13.306 -24.247,-13.246 -24.235,-13.123M-23.617,-17.381C-24.014,-17.549 -24.385,-17.326 -24.539,-17.094C-24.866,-16.603 -24.658,-16.08 -24.536,-15.905C-24.382,-15.683 -23.971,-15.231 -23.875,-15.115C-23.584,-14.761 -23.659,-14.563 -23.726,-14.484C-23.895,-14.284 -24.171,-14.454 -24.171,-14.454C-24.171,-14.454 -24.121,-14.29 -23.945,-14.219C-23.655,-14.1 -23.494,-14.241 -23.392,-14.347C-23.191,-14.555 -23.332,-14.872 -23.41,-14.994C-23.489,-15.115 -23.581,-15.284 -23.633,-15.372C-23.796,-15.654 -23.668,-15.993 -23.51,-16.134C-23.229,-16.387 -22.922,-16.182 -22.766,-15.935C-22.54,-15.574 -22.426,-15.09 -22.426,-15.09C-22.426,-15.09 -22.393,-15.103 -22.361,-15.113C-22.325,-15.123 -22.289,-15.131 -22.289,-15.131C-22.289,-15.131 -22.353,-15.433 -22.408,-15.652C-22.478,-15.933 -22.622,-16.333 -22.721,-16.536C-23.01,-17.133 -23.434,-17.303 -23.617,-17.381M-22.686,-16.948C-22.686,-16.948 -22.766,-17.22 -22.803,-17.454C-22.836,-17.66 -22.835,-17.962 -22.835,-17.962C-22.835,-17.962 -22.918,-18.062 -23.109,-18.145C-23.306,-18.231 -23.488,-18.213 -23.488,-18.213C-23.488,-18.213 -23.447,-18.074 -23.413,-17.912C-23.379,-17.751 -23.359,-17.56 -23.359,-17.56C-23.359,-17.56 -23.173,-17.484 -23.021,-17.343C-22.867,-17.2 -22.686,-16.948 -22.686,-16.948M-21.789,-16.439C-21.56,-17.449 -21.556,-17.943 -21.661,-18.468C-21.737,-18.851 -22.072,-19.29 -22.072,-19.29C-22.072,-19.29 -22.407,-18.851 -22.483,-18.468C-22.588,-17.943 -22.584,-17.449 -22.355,-16.439C-22.298,-16.187 -22.072,-15.139 -22.072,-15.139C-22.072,-15.139 -21.846,-16.187 -21.789,-16.439M-15.863,-27.519C-16.261,-27.687 -16.631,-27.465 -16.785,-27.233C-17.112,-26.742 -16.904,-26.219 -16.782,-26.044C-16.628,-25.821 -16.217,-25.37 -16.121,-25.254C-15.831,-24.9 -15.904,-24.702 -15.972,-24.622C-16.141,-24.423 -16.417,-24.592 -16.417,-24.592C-16.417,-24.592 -16.367,-24.429 -16.192,-24.357C-15.902,-24.239 -15.74,-24.38 -15.638,-24.486C-15.437,-24.694 -15.578,-25.011 -15.657,-25.132C-15.734,-25.254 -15.827,-25.422 -15.878,-25.511C-16.043,-25.793 -15.914,-26.132 -15.757,-26.274C-15.475,-26.526 -15.168,-26.321 -15.013,-26.074C-14.785,-25.713 -14.673,-25.229 -14.673,-25.229C-14.673,-25.229 -14.639,-25.242 -14.607,-25.252C-14.571,-25.262 -14.536,-25.269 -14.536,-25.269C-14.536,-25.269 -14.598,-25.572 -14.654,-25.792C-14.725,-26.072 -14.869,-26.471 -14.967,-26.675C-15.256,-27.271 -15.68,-27.441 -15.863,-27.519M-13.535,-23.299C-13.878,-23.541 -13.882,-23.997 -13.882,-23.997L-14.015,-23.961C-14.015,-23.961 -14.033,-23.745 -13.987,-23.559C-13.906,-23.238 -13.697,-22.986 -13.633,-22.91C-13.427,-22.666 -13.264,-22.625 -13.153,-22.625C-12.965,-22.625 -12.786,-22.862 -12.734,-22.93C-12.683,-22.997 -12.562,-23.242 -12.404,-23.265C-12.256,-23.287 -12.186,-23.132 -12.186,-23.132C-12.186,-23.132 -12.159,-23.219 -12.155,-23.261C-12.143,-23.384 -12.21,-23.445 -12.277,-23.471C-12.488,-23.555 -12.771,-23.31 -12.821,-23.271C-13.107,-23.046 -13.352,-23.169 -13.535,-23.299M-14.318,-24.204C-13.964,-24.204 -13.677,-24.4 -13.677,-24.642C-13.677,-24.884 -13.964,-25.081 -14.318,-25.081C-14.672,-25.081 -14.959,-24.884 -14.959,-24.642C-14.959,-24.4 -14.672,-24.204 -14.318,-24.204M-13.83,-22.843C-13.83,-22.843 -13.984,-23.001 -14.096,-23.246C-14.257,-23.598 -14.213,-23.947 -14.213,-23.947C-14.213,-23.947 -14.243,-23.946 -14.267,-23.946C-14.291,-23.946 -14.318,-23.944 -14.318,-23.944C-14.318,-23.944 -14.346,-23.946 -14.369,-23.946C-14.393,-23.946 -14.424,-23.947 -14.424,-23.947C-14.424,-23.947 -14.38,-23.598 -14.541,-23.246C-14.653,-23.001 -14.806,-22.843 -14.806,-22.843C-14.806,-22.843 -14.744,-22.585 -14.635,-22.393C-14.503,-22.161 -14.318,-21.948 -14.318,-21.948C-14.318,-21.948 -14.133,-22.161 -14.002,-22.393C-13.892,-22.585 -13.83,-22.843 -13.83,-22.843M-15.004,-22.91C-14.94,-22.986 -14.731,-23.238 -14.65,-23.559C-14.604,-23.745 -14.621,-23.961 -14.621,-23.961L-14.755,-23.997C-14.755,-23.997 -14.759,-23.541 -15.101,-23.299C-15.285,-23.169 -15.529,-23.046 -15.816,-23.271C-15.865,-23.31 -16.148,-23.555 -16.36,-23.471C-16.426,-23.445 -16.494,-23.384 -16.482,-23.261C-16.478,-23.219 -16.451,-23.132 -16.451,-23.132C-16.451,-23.132 -16.38,-23.287 -16.232,-23.265C-16.076,-23.242 -15.954,-22.997 -15.903,-22.93C-15.851,-22.862 -15.672,-22.625 -15.484,-22.625C-15.372,-22.625 -15.209,-22.666 -15.004,-22.91M-14.036,-26.578C-13.806,-27.587 -13.803,-28.081 -13.907,-28.607C-13.984,-28.99 -14.318,-29.429 -14.318,-29.429C-14.318,-29.429 -14.653,-28.99 -14.729,-28.607C-14.834,-28.081 -14.83,-27.587 -14.601,-26.578C-14.544,-26.326 -14.318,-25.278 -14.318,-25.278C-14.318,-25.278 -14.092,-26.326 -14.036,-26.578M-11.854,-26.044C-11.733,-26.219 -11.524,-26.742 -11.851,-27.233C-12.005,-27.465 -12.376,-27.687 -12.773,-27.519C-12.956,-27.441 -13.381,-27.271 -13.67,-26.675C-13.768,-26.471 -13.912,-26.072 -13.982,-25.792C-14.038,-25.572 -14.101,-25.269 -14.101,-25.269C-14.101,-25.269 -14.066,-25.262 -14.03,-25.252C-13.997,-25.242 -13.964,-25.229 -13.964,-25.229C-13.964,-25.229 -13.851,-25.713 -13.624,-26.074C-13.469,-26.321 -13.161,-26.526 -12.88,-26.274C-12.722,-26.132 -12.594,-25.793 -12.758,-25.511C-12.809,-25.422 -12.901,-25.254 -12.98,-25.132C-13.058,-25.011 -13.2,-24.694 -12.998,-24.486C-12.896,-24.38 -12.735,-24.239 -12.445,-24.357C-12.27,-24.429 -12.22,-24.592 -12.22,-24.592C-12.22,-24.592 -12.495,-24.423 -12.664,-24.622C-12.732,-24.702 -12.806,-24.9 -12.516,-25.254C-12.42,-25.37 -12.008,-25.821 -11.854,-26.044M-12.741,-19.074L-14.318,-16.318L-14.319,-16.318L-15.896,-19.074L-12.741,-19.074ZM-6.364,-8.803C-6.364,-8.803 -6.408,-8.694 -6.956,-8.555C-7.546,-8.406 -7.737,-9.031 -7.786,-9.174C-8.001,-9.794 -8.42,-9.857 -8.775,-9.985C-9.131,-10.112 -10.19,-10.402 -10.374,-10.455C-10.93,-10.613 -10.876,-10.772 -10.824,-10.858C-10.726,-11.02 -10.324,-10.837 -10.062,-10.752C-9.65,-10.619 -9.376,-10.572 -9.161,-10.597C-8.757,-10.646 -8.7,-11.113 -8.805,-11.433C-8.89,-11.688 -11.479,-18.853 -11.479,-18.853L-10.762,-18.853C-10.762,-18.853 -10.496,-19.922 -10.326,-20.37C-9.896,-21.507 -9.485,-21.934 -9.347,-22.023C-8.68,-22.455 -8.481,-22.022 -8.442,-21.904C-8.306,-21.489 -8.561,-21.271 -8.561,-21.271C-8.561,-21.271 -8.446,-21.224 -8.33,-21.22C-8.128,-21.214 -7.965,-21.313 -7.827,-21.462C-7.465,-21.85 -7.792,-22.343 -7.792,-22.343C-7.792,-22.343 -7.305,-22.422 -7.098,-23.091C-6.844,-23.915 -7.731,-24.517 -7.731,-24.517C-7.731,-24.517 -7.693,-24.46 -7.759,-24.06C-7.824,-23.661 -8.514,-23.486 -8.843,-23.404C-9.608,-23.214 -10.164,-22.65 -10.49,-22.271C-10.882,-21.815 -11.205,-20.766 -11.205,-20.766L-14.318,-20.766L-14.319,-20.766L-17.431,-20.766C-17.431,-20.766 -17.754,-21.815 -18.147,-22.271C-18.472,-22.65 -19.028,-23.214 -19.794,-23.404C-20.122,-23.486 -20.812,-23.661 -20.878,-24.06C-20.944,-24.46 -20.906,-24.517 -20.906,-24.517C-20.906,-24.517 -21.792,-23.915 -21.538,-23.091C-21.332,-22.422 -20.844,-22.343 -20.844,-22.343C-20.844,-22.343 -21.171,-21.85 -20.811,-21.462C-20.672,-21.313 -20.509,-21.214 -20.307,-21.22C-20.191,-21.224 -20.076,-21.271 -20.076,-21.271C-20.076,-21.271 -20.331,-21.489 -20.195,-21.904C-20.156,-22.022 -19.957,-22.455 -19.29,-22.023C-19.152,-21.934 -18.741,-21.507 -18.31,-20.37C-18.14,-19.922 -17.875,-18.853 -17.875,-18.853L-17.157,-18.853C-17.157,-18.853 -19.747,-11.688 -19.831,-11.433C-19.937,-11.113 -19.88,-10.646 -19.476,-10.597C-19.261,-10.572 -18.986,-10.619 -18.574,-10.752C-18.312,-10.837 -17.91,-11.02 -17.813,-10.858C-17.761,-10.772 -17.707,-10.613 -18.262,-10.455C-18.446,-10.402 -19.506,-10.112 -19.861,-9.985C-20.216,-9.857 -20.635,-9.794 -20.85,-9.174C-20.9,-9.031 -21.091,-8.406 -21.681,-8.555C-22.229,-8.694 -22.273,-8.803 -22.273,-8.803C-22.273,-8.803 -21.933,-7.955 -21.423,-7.696C-20.449,-7.203 -19.834,-7.997 -19.834,-7.997C-19.834,-7.997 -19.579,-7.709 -19.057,-7.827C-18.86,-7.871 -18.677,-8 -18.569,-8.146C-18.513,-8.22 -18.468,-8.319 -18.468,-8.319C-18.468,-8.319 -19.005,-8.31 -19.112,-8.577C-19.169,-8.721 -19.163,-8.929 -18.638,-9.265C-18.471,-9.373 -17.668,-9.821 -17.336,-10.045C-16.995,-10.276 -16.537,-10.622 -16.753,-11.051C-16.925,-11.393 -17.273,-11.523 -17.273,-11.523L-15.941,-16.584L-14.319,-13.921L-14.318,-13.921L-12.696,-16.584L-11.364,-11.523C-11.364,-11.523 -11.712,-11.393 -11.884,-11.051C-12.1,-10.622 -11.642,-10.276 -11.3,-10.045C-10.968,-9.821 -10.166,-9.373 -9.999,-9.265C-9.473,-8.929 -9.467,-8.721 -9.525,-8.577C-9.631,-8.31 -10.168,-8.319 -10.168,-8.319C-10.168,-8.319 -10.124,-8.22 -10.068,-8.146C-9.959,-8 -9.776,-7.871 -9.579,-7.827C-9.058,-7.709 -8.803,-7.997 -8.803,-7.997C-8.803,-7.997 -8.188,-7.203 -7.214,-7.696C-6.703,-7.955 -6.364,-8.803 -6.364,-8.803M-6.282,-16.439C-6.053,-17.449 -6.049,-17.943 -6.153,-18.468C-6.23,-18.851 -6.565,-19.29 -6.565,-19.29C-6.565,-19.29 -6.9,-18.851 -6.976,-18.468C-7.08,-17.943 -7.077,-17.449 -6.847,-16.439C-6.79,-16.187 -6.565,-15.139 -6.565,-15.139C-6.565,-15.139 -6.339,-16.187 -6.282,-16.439M-5.149,-18.213C-5.149,-18.213 -5.331,-18.231 -5.528,-18.145C-5.718,-18.062 -5.801,-17.962 -5.801,-17.962C-5.801,-17.962 -5.801,-17.66 -5.834,-17.454C-5.871,-17.22 -5.95,-16.948 -5.95,-16.948C-5.95,-16.948 -5.77,-17.2 -5.616,-17.343C-5.464,-17.484 -5.278,-17.56 -5.278,-17.56C-5.278,-17.56 -5.257,-17.751 -5.224,-17.912C-5.19,-18.074 -5.149,-18.213 -5.149,-18.213M-4.101,-15.905C-3.979,-16.08 -3.771,-16.603 -4.097,-17.094C-4.252,-17.326 -4.622,-17.549 -5.019,-17.381C-5.203,-17.303 -5.627,-17.133 -5.916,-16.536C-6.014,-16.333 -6.158,-15.933 -6.229,-15.652C-6.284,-15.433 -6.347,-15.131 -6.347,-15.131C-6.347,-15.131 -6.312,-15.123 -6.276,-15.113C-6.243,-15.103 -6.21,-15.09 -6.21,-15.09C-6.21,-15.09 -6.097,-15.574 -5.87,-15.935C-5.715,-16.182 -5.407,-16.387 -5.126,-16.134C-4.969,-15.993 -4.84,-15.654 -5.004,-15.372C-5.056,-15.284 -5.148,-15.115 -5.226,-14.994C-5.305,-14.872 -5.446,-14.555 -5.244,-14.347C-5.143,-14.241 -4.981,-14.1 -4.691,-14.219C-4.516,-14.29 -4.467,-14.454 -4.467,-14.454C-4.467,-14.454 -4.742,-14.284 -4.911,-14.484C-4.978,-14.563 -5.052,-14.761 -4.762,-15.115C-4.667,-15.231 -4.254,-15.683 -4.101,-15.905M-2.811,-31.46L-14.32,-31.46L-14.32,-31.459L-25.826,-31.459C-26.652,-31.459 -27.321,-30.789 -27.321,-29.963L-27.321,-6.608C-27.321,-3.293 -24.634,-0.605 -21.318,-0.605L-17.112,-0.605C-16.548,-0.605 -16.018,-0.449 -15.618,-0.201C-15.31,-0.02 -15.038,0.218 -14.818,0.499C-14.691,0.66 -14.502,0.739 -14.316,0.734L-14.316,0.733C-14.132,0.737 -13.945,0.658 -13.819,0.498C-13.599,0.218 -13.327,-0.02 -13.018,-0.202C-12.618,-0.449 -12.089,-0.606 -11.525,-0.606L-7.318,-0.606C-4.003,-0.606 -1.315,-3.293 -1.315,-6.609L-1.315,-29.964C-1.315,-30.79 -1.985,-31.46 -2.811,-31.46M-2.457,-6.609C-2.457,-3.928 -4.638,-1.747 -7.318,-1.747L-11.525,-1.747C-12.681,-1.747 -13.716,-1.286 -14.319,-0.594C-14.922,-1.286 -15.956,-1.747 -17.112,-1.747L-21.318,-1.747C-23.999,-1.747 -26.18,-3.928 -26.18,-6.608L-26.18,-29.963C-26.18,-30.158 -26.021,-30.317 -25.826,-30.317L-14.316,-30.317L-14.316,-30.318L-2.811,-30.318C-2.616,-30.318 -2.457,-30.159 -2.457,-29.964L-2.457,-6.609ZM3.628,-24.786L3.628,-27.913L17.489,-27.913L17.489,-24.786L12.418,-24.786L12.418,-10.996L8.699,-10.996L8.699,-24.786L3.628,-24.786ZM31.871,-12.288C30.592,-11.173 28.822,-10.616 26.564,-10.616C24.273,-10.616 22.5,-11.169 21.244,-12.275C19.989,-13.381 19.361,-15.087 19.361,-17.392L19.361,-27.913L23.081,-27.913L23.081,-17.392C23.081,-16.934 23.12,-16.485 23.199,-16.043C23.278,-15.6 23.444,-15.209 23.697,-14.87C23.949,-14.53 24.301,-14.253 24.751,-14.04C25.201,-13.826 25.806,-13.72 26.564,-13.72C27.89,-13.72 28.806,-14.017 29.312,-14.608C29.818,-15.201 30.071,-16.129 30.071,-17.392L30.071,-27.913L33.79,-27.913L33.79,-17.392C33.79,-15.103 33.15,-13.401 31.871,-12.288M45.837,-27.913C46.595,-27.913 47.278,-27.79 47.886,-27.546C48.494,-27.301 49.015,-26.965 49.45,-26.538C49.884,-26.113 50.216,-25.619 50.445,-25.058C50.674,-24.497 50.789,-23.893 50.789,-23.246C50.789,-22.25 50.579,-21.389 50.161,-20.663C49.742,-19.936 49.059,-19.383 48.111,-19.004L48.111,-18.957C48.569,-18.83 48.948,-18.637 49.249,-18.376C49.548,-18.115 49.794,-17.807 49.983,-17.453C50.173,-17.097 50.311,-16.706 50.398,-16.279C50.484,-15.852 50.543,-15.427 50.575,-15C50.591,-14.731 50.607,-14.416 50.623,-14.052C50.639,-13.689 50.666,-13.318 50.706,-12.938C50.745,-12.56 50.809,-12.199 50.895,-11.861C50.982,-11.521 51.112,-11.233 51.286,-10.996L47.566,-10.996C47.361,-11.532 47.235,-12.172 47.187,-12.915C47.14,-13.656 47.069,-14.368 46.974,-15.047C46.847,-15.932 46.579,-16.579 46.169,-16.99C45.758,-17.401 45.087,-17.606 44.154,-17.606L40.435,-17.606L40.435,-10.996L36.715,-10.996L36.715,-27.913L45.837,-27.913ZM44.51,-20.259C45.363,-20.259 46.003,-20.45 46.429,-20.828C46.856,-21.208 47.069,-21.824 47.069,-22.677C47.069,-23.498 46.856,-24.094 46.429,-24.465C46.003,-24.836 45.363,-25.022 44.51,-25.022L40.435,-25.022L40.435,-20.259L44.51,-20.259ZM57.33,-27.913L57.33,-20.899L63.94,-27.913L68.584,-27.913L61.973,-21.231L69.223,-10.996L64.556,-10.996L59.462,-18.601L57.33,-16.445L57.33,-10.996L53.609,-10.996L53.609,-27.913L57.33,-27.913ZM82.927,-12.288C81.648,-11.173 79.878,-10.616 77.62,-10.616C75.33,-10.616 73.556,-11.169 72.301,-12.275C71.045,-13.381 70.417,-15.087 70.417,-17.392L70.417,-27.913L74.137,-27.913L74.137,-17.392C74.137,-16.934 74.176,-16.485 74.255,-16.043C74.334,-15.6 74.5,-15.209 74.753,-14.87C75.005,-14.53 75.357,-14.253 75.807,-14.04C76.257,-13.826 76.862,-13.72 77.62,-13.72C78.947,-13.72 79.863,-14.017 80.368,-14.608C80.874,-15.201 81.127,-16.129 81.127,-17.392L81.127,-27.913L84.846,-27.913L84.846,-17.392C84.846,-15.103 84.207,-13.401 82.927,-12.288" style="fill:white;fill-rule:nonzero;"/>
        </g>
    </g>
</svg>
